<?xml version="1.0" encoding="UTF-8"?>
<svg version="1.1" xmlns="http://www.w3.org/2000/svg" width="578" height="658">
<path d="M0 0 C7.65210586 7.27805041 13.27813299 15.12394413 17.484375 24.78515625 C21.44774464 33.62969508 27.83348378 38.04187057 35.74853516 43.27539062 C38.99800077 45.47216881 42.07963072 47.87455227 45.171875 50.28515625 C46.21085938 51.08179687 47.24984375 51.8784375 48.3203125 52.69921875 C50.796875 54.66015625 50.796875 54.66015625 52.796875 56.66015625 C52.63671875 58.6953125 52.63671875 58.6953125 51.796875 60.66015625 C48.76916976 61.92628753 45.95609586 62.80209626 42.796875 63.66015625 C41.26273712 64.09143999 39.72890888 64.52382596 38.1953125 64.95703125 C33.73447067 66.21118777 29.26715956 67.44011095 24.796875 68.66015625 C24.56613281 69.68753906 24.33539063 70.71492188 24.09765625 71.7734375 C21.82472597 81.55378196 18.82289042 90.21332849 13.921875 99.03515625 C12.52788319 102.28780381 12.7855272 103.29374502 13.796875 106.66015625 C15.1397069 109.03202144 16.51565037 111.30791097 17.984375 113.59765625 C37.00844664 144.37788001 42.02862456 182.12588877 34.109375 217.22265625 C28.76534961 238.90711599 19.24932586 258.60007664 4.796875 275.66015625 C4.36793945 276.16740234 3.93900391 276.67464844 3.49707031 277.19726562 C-7.12321223 289.6203982 -19.26853691 299.1991245 -33.203125 307.66015625 C-32.62981445 307.62760742 -32.05650391 307.59505859 -31.46582031 307.56152344 C-13.88391302 306.80690487 -13.88391302 306.80690487 -8.13671875 311.3984375 C-5.15892294 314.2395588 -2.6239025 317.33722565 -0.203125 320.66015625 C4.06051856 319.74039698 4.06051856 319.74039698 6.921875 316.76953125 C7.210625 316.0734375 7.499375 315.37734375 7.796875 314.66015625 C9.671875 312.73828125 9.671875 312.73828125 11.796875 310.91015625 C12.498125 310.2965625 13.199375 309.68296875 13.921875 309.05078125 C15.796875 307.66015625 15.796875 307.66015625 17.796875 307.66015625 C17.9825 307.10328125 18.168125 306.54640625 18.359375 305.97265625 C20.17967219 303.04435208 22.3824511 301.67289867 25.23828125 299.80859375 C26.95260015 298.72768691 26.95260015 298.72768691 27.796875 296.66015625 C28.456875 296.66015625 29.116875 296.66015625 29.796875 296.66015625 C30.126875 295.67015625 30.456875 294.68015625 30.796875 293.66015625 C32.79296875 291.94140625 32.79296875 291.94140625 35.234375 290.16015625 C38.1212048 288.04716365 39.78671711 286.67539309 41.796875 283.66015625 C43.8203125 282.859375 43.8203125 282.859375 46.171875 282.34765625 C47.32816406 282.07501953 47.32816406 282.07501953 48.5078125 281.796875 C51.262584 281.63234087 52.54072106 282.09476309 54.796875 283.66015625 C55.126875 284.65015625 55.456875 285.64015625 55.796875 286.66015625 C56.456875 286.99015625 57.116875 287.32015625 57.796875 287.66015625 C56.90072589 295.05338644 53.51426132 299.31678626 47.859375 303.78515625 C46.97765625 304.45546875 46.0959375 305.12578125 45.1875 305.81640625 C42.48694512 307.89918714 40.17400474 310.21877976 37.796875 312.66015625 C36.6386348 313.66990412 35.47131695 314.66929944 34.296875 315.66015625 C32.19568849 317.43529657 30.2468594 319.21017185 28.296875 321.16015625 C25.79765633 323.65937492 23.18153949 325.91276728 20.484375 328.19140625 C19.03374304 329.45399333 17.65673882 330.80029243 16.296875 332.16015625 C14.3468906 334.11014065 12.39806151 335.88501593 10.296875 337.66015625 C8.26698909 339.3770833 6.36776658 341.08926467 4.484375 342.97265625 C0.41316369 347.04386756 -3.90486886 350.83151232 -8.203125 354.66015625 C-8.98042969 355.36527344 -9.75773437 356.07039063 -10.55859375 356.796875 C-11.26628906 357.43238281 -11.97398437 358.06789063 -12.703125 358.72265625 C-13.3321875 359.29113281 -13.96125 359.85960937 -14.609375 360.4453125 C-16.203125 361.66015625 -16.203125 361.66015625 -18.203125 361.66015625 C-18.44289063 362.23636719 -18.68265625 362.81257813 -18.9296875 363.40625 C-20.46160829 366.11765581 -22.22385552 367.68457507 -24.578125 369.72265625 C-28.5629924 373.21734459 -32.49716154 376.75227459 -36.390625 380.34765625 C-48.71659352 391.66015625 -48.71659352 391.66015625 -51.203125 391.66015625 C-51.42355469 392.22863281 -51.64398438 392.79710937 -51.87109375 393.3828125 C-53.61675506 396.36733022 -55.79553123 397.97384826 -58.515625 400.09765625 C-62.33588656 403.09445079 -65.79865981 406.1994189 -69.203125 409.66015625 C-70.89649921 411.15262165 -72.62284654 412.59350998 -74.359375 414.03515625 C-76.74792696 416.14032069 -78.95341599 418.40718679 -81.203125 420.66015625 C-83.39219319 422.74365332 -85.60800309 424.79733819 -87.828125 426.84765625 C-88.40046875 427.38068359 -88.9728125 427.91371094 -89.5625 428.46289062 C-92.02659218 430.74074328 -94.40531496 432.79494956 -97.203125 434.66015625 C-97.533125 435.65015625 -97.863125 436.64015625 -98.203125 437.66015625 C-100.203125 439.32682292 -102.203125 440.99348958 -104.203125 442.66015625 C-104.533125 443.65015625 -104.863125 444.64015625 -105.203125 445.66015625 C-106.6263078 446.85165813 -108.05381543 448.03874245 -109.51171875 449.1875 C-111.95241693 451.31254206 -113.89961525 453.77481734 -115.90625 456.3046875 C-116.33421875 456.75199219 -116.7621875 457.19929688 -117.203125 457.66015625 C-117.863125 457.66015625 -118.523125 457.66015625 -119.203125 457.66015625 C-119.29464844 458.25570313 -119.38617188 458.85125 -119.48046875 459.46484375 C-120.37615179 462.18578357 -121.51900704 463.05140259 -123.765625 464.78515625 C-125.6713722 466.22378659 -125.6713722 466.22378659 -127.203125 467.66015625 C-127.203125 468.32015625 -127.203125 468.98015625 -127.203125 469.66015625 C-128.5760606 470.798402 -130.00316881 471.87180053 -131.453125 472.91015625 C-135.32535077 475.82337283 -137.58778588 478.56279163 -140.203125 482.66015625 C-146.24431493 488.66015625 -146.24431493 488.66015625 -149.203125 488.66015625 C-149.450625 489.2428125 -149.698125 489.82546875 -149.953125 490.42578125 C-151.38837946 492.99129861 -152.97975513 494.49740423 -155.203125 496.41015625 C-155.904375 497.02375 -156.605625 497.63734375 -157.328125 498.26953125 C-159.203125 499.66015625 -159.203125 499.66015625 -161.203125 499.66015625 C-161.38875 500.21703125 -161.574375 500.77390625 -161.765625 501.34765625 C-163.58592219 504.27596042 -165.7887011 505.64741383 -168.64453125 507.51171875 C-170.35885015 508.59262559 -170.35885015 508.59262559 -171.203125 510.66015625 C-171.863125 510.66015625 -172.523125 510.66015625 -173.203125 510.66015625 C-173.44417969 511.24925781 -173.68523437 511.83835937 -173.93359375 512.4453125 C-175.4469335 515.08550831 -177.06260712 516.31251887 -179.515625 518.09765625 C-183.04275258 520.74159558 -186.12256378 523.49852763 -189.203125 526.66015625 C-190.90288907 528.14250864 -192.62412255 529.59456931 -194.359375 531.03515625 C-196.7478284 533.14023383 -198.95358568 535.40732331 -201.203125 537.66015625 C-203.24552654 539.59893349 -205.31531247 541.50671756 -207.390625 543.41015625 C-207.92365234 543.90386719 -208.45667969 544.39757812 -209.00585938 544.90625 C-212.96358083 548.54038416 -212.96358083 548.54038416 -215.203125 549.66015625 C-216.19815594 551.69618239 -216.19815594 551.69618239 -217.078125 554.16015625 C-218.40525679 557.62654525 -219.78868004 561.03256805 -221.328125 564.41015625 C-222.84366732 567.7694095 -224.11789763 571.1331673 -225.203125 574.66015625 C-225.863125 574.66015625 -226.523125 574.66015625 -227.203125 574.66015625 C-227.203125 575.65015625 -227.203125 576.64015625 -227.203125 577.66015625 C-228.203125 578.66015625 -229.203125 579.66015625 -230.203125 580.66015625 C-231.25321153 582.63431893 -232.25300376 584.63598491 -233.203125 586.66015625 C-233.86979167 587.99348958 -234.53645833 589.32682292 -235.203125 590.66015625 C-235.863125 590.66015625 -236.523125 590.66015625 -237.203125 590.66015625 C-238.40940508 592.99229773 -239.3685988 595.15657764 -240.203125 597.66015625 C-241.18066144 598.68212617 -242.1837131 599.6799525 -243.203125 600.66015625 C-244.22113076 601.97979334 -245.22560865 603.31025271 -246.203125 604.66015625 C-248.183125 604.33015625 -250.163125 604.00015625 -252.203125 603.66015625 C-252.203125 603.00015625 -252.203125 602.34015625 -252.203125 601.66015625 C-253.07582031 601.42167969 -253.94851562 601.18320312 -254.84765625 600.9375 C-258.55022338 599.5280245 -260.88011081 597.77970387 -263.890625 595.22265625 C-264.82261719 594.44019531 -265.75460937 593.65773438 -266.71484375 592.8515625 C-270.8598873 589.20106104 -270.8598873 589.20106104 -272.203125 587.66015625 C-272.203125 587.00015625 -272.203125 586.34015625 -272.203125 585.66015625 C-272.863125 585.66015625 -273.523125 585.66015625 -274.203125 585.66015625 C-275.82668846 583.69077964 -277.33872066 581.72670477 -278.828125 579.66015625 C-279.24835938 579.0878125 -279.66859375 578.51546875 -280.1015625 577.92578125 C-281.14118301 576.50811692 -282.17290091 575.08466363 -283.203125 573.66015625 C-280.65390226 568.84495773 -278.22467647 565.40751103 -274.203125 561.66015625 C-272.88835878 560.32905753 -271.57604363 558.99553524 -270.265625 557.66015625 C-261.24857955 548.66015625 -261.24857955 548.66015625 -258.203125 548.66015625 C-257.96207031 548.07105469 -257.72101563 547.48195313 -257.47265625 546.875 C-255.9593165 544.23480419 -254.34364288 543.00779363 -251.890625 541.22265625 C-248.36349742 538.57871692 -245.28368622 535.82178487 -242.203125 532.66015625 C-241.04505585 531.65021222 -239.87776113 530.65078286 -238.703125 529.66015625 C-236.60193849 527.88501593 -234.6531094 526.11014065 -232.703125 524.16015625 C-230.20390633 521.66093758 -227.58778949 519.40754522 -224.890625 517.12890625 C-223.43999304 515.86631917 -222.06298882 514.52002007 -220.703125 513.16015625 C-218.20390633 510.66093758 -215.58778949 508.40754522 -212.890625 506.12890625 C-211.43999304 504.86631917 -210.06298882 503.52002007 -208.703125 502.16015625 C-206.7531406 500.21017185 -204.80431151 498.43529657 -202.703125 496.66015625 C-200.67323909 494.9432292 -198.77401658 493.23104783 -196.890625 491.34765625 C-193.69147121 488.14850246 -190.33990605 485.15245189 -186.96484375 482.140625 C-185.05856599 480.42848019 -183.1661012 478.70087453 -181.28515625 476.9609375 C-180.32996094 476.07792969 -179.37476563 475.19492187 -178.390625 474.28515625 C-177.51792969 473.47304688 -176.64523437 472.6609375 -175.74609375 471.82421875 C-173.33428129 469.77177005 -170.94788639 468.22333694 -168.203125 466.66015625 C-165.50326393 464.63526045 -163.12345688 462.57844536 -160.765625 460.16015625 C-158.09672808 457.55635437 -155.29906936 455.72411916 -152.203125 453.66015625 C-151.3575 452.81453125 -150.511875 451.96890625 -149.640625 451.09765625 C-147.27218206 448.72921331 -145.05369485 447.37049816 -142.203125 445.66015625 C-141.0584375 444.48453125 -141.0584375 444.48453125 -139.890625 443.28515625 C-137.13315923 440.59181759 -134.40436231 438.82020501 -131.125 436.84765625 C-126.9793867 434.28613909 -123.61300209 431.10585138 -120.203125 427.66015625 C-120.55391113 427.21438232 -120.90469727 426.7686084 -121.26611328 426.30932617 C-128.59333059 416.98237431 -135.78880032 407.57846004 -142.79150391 398.00537109 C-149.21933813 389.23557101 -155.80903982 380.5882183 -162.45141602 371.97998047 C-163.61286304 370.4418523 -164.74433817 368.88059664 -165.84350586 367.29736328 C-166.35276611 366.5701709 -166.86202637 365.84297852 -167.38671875 365.09375 C-168.04111938 364.12586548 -168.04111938 364.12586548 -168.70874023 363.13842773 C-171.14946204 360.72402314 -173.79626831 360.93626687 -177.0859375 360.84765625 C-180.41249143 360.55305369 -181.99965069 359.06394641 -184.203125 356.66015625 C-186.30939974 353.21352486 -186.55957882 350.11984838 -185.9609375 346.12890625 C-184.26937887 340.61826163 -181.09543411 335.61408517 -178.203125 330.66015625 C-178.8115625 330.52480469 -179.42 330.38945312 -180.046875 330.25 C-213.52173736 322.02896763 -243.2631289 298.53449868 -261.078125 269.3203125 C-267.83203543 257.86897078 -272.50048574 246.2005276 -277.203125 233.66015625 C-340.893125 233.33015625 -404.583125 233.00015625 -470.203125 232.66015625 C-464.5862488 228.16665529 -464.5862488 228.16665529 -461.62109375 226.57421875 C-460.94933105 226.20844727 -460.27756836 225.84267578 -459.58544922 225.46582031 C-458.86115723 225.07620117 -458.13686523 224.68658203 -457.390625 224.28515625 C-450.05239215 220.27198896 -442.79607251 216.13576804 -435.578125 211.91015625 C-434.56282715 211.31581787 -433.5475293 210.72147949 -432.50146484 210.10913086 C-430.42665192 208.89368765 -428.35210846 207.67778434 -426.27783203 206.46142578 C-422.33679001 204.1526273 -418.39045654 201.85297628 -414.44384766 199.55371094 C-403.89878656 193.40989845 -393.36763684 187.2425547 -382.84072876 181.06771851 C-374.63449951 176.25433673 -366.42286139 171.45045247 -358.203125 166.66015625 C-349.46674462 161.56826607 -340.7385259 156.46259119 -332.015625 151.34765625 C-331.41029938 150.99271088 -330.80497375 150.6377655 -330.18130493 150.27206421 C-325.85502698 147.73513315 -321.52904363 145.19769996 -317.203125 142.66015625 C-312.26582495 139.76398188 -307.32839852 136.86802331 -302.390625 133.97265625 C-301.78489655 133.61746918 -301.17916809 133.2622821 -300.55508423 132.89633179 C-291.47376179 127.57178335 -282.38365313 122.2624443 -273.28857422 116.96142578 C-261.81653525 110.27272745 -250.3631501 103.55223505 -238.90869141 96.83349609 C-232.23895963 92.92143134 -225.56787747 89.0116696 -218.89703369 85.10150146 C-217.08889928 84.04164064 -215.28077409 82.98176409 -213.47265625 81.921875 C-212.87553833 81.57185425 -212.27842041 81.2218335 -211.66320801 80.86120605 C-207.98771107 78.70658734 -204.31252501 76.55143946 -200.63761902 74.39581299 C-199.39866862 73.66911926 -198.15966522 72.94251589 -196.92060852 72.21600342 C-193.87043687 70.4275427 -190.82088358 68.63804734 -187.77270508 66.84619141 C-181.97571594 63.44082886 -176.1672561 60.05925831 -170.328125 56.7265625 C-169.24120361 56.10289795 -168.15428223 55.4792334 -167.03442383 54.83666992 C-165.01513254 53.6795409 -162.99184022 52.52935085 -160.96362305 51.38793945 C-153.42341519 47.05561823 -147.02146456 42.07056241 -141.390625 35.41015625 C-135.92549362 29.18890337 -130.01590041 23.42073561 -124.11791992 17.61230469 C-119.81346614 13.35311469 -115.71768455 9.01260476 -111.76757812 4.42431641 C-82.79992836 -28.24113884 -31.97337163 -27.05091753 0 0 Z M-87.24365234 325.40332031 C-102.49251746 330.31849208 -119.70007679 335.46650456 -135.83984375 334.2890625 C-144.68020633 333.70278832 -144.68020633 333.70278832 -153.203125 335.66015625 C-158.80247437 340.98909358 -161.66337632 348.49096791 -164.203125 355.66015625 C-159.98376364 362.18366606 -155.45127702 368.38871123 -150.703125 374.53515625 C-145.337961 381.52465876 -140.03510452 388.55198681 -134.828125 395.66015625 C-128.12812456 404.79977949 -121.30290359 413.82559013 -114.203125 422.66015625 C-108.02777164 421.51657229 -103.8262748 417.60522844 -99.390625 413.41015625 C-98.32874631 412.42120745 -97.26624567 411.43292605 -96.203125 410.4453125 C-95.69007813 409.96723145 -95.17703125 409.48915039 -94.6484375 408.99658203 C-90.96586829 405.59144962 -87.16225491 402.3200885 -83.3359375 399.078125 C-80.69605487 396.84045624 -78.1524997 394.60953095 -75.703125 392.16015625 C-73.20390633 389.66093758 -70.58778949 387.40754522 -67.890625 385.12890625 C-66.43999304 383.86631917 -65.06298882 382.52002007 -63.703125 381.16015625 C-61.20390633 378.66093758 -58.58778949 376.40754522 -55.890625 374.12890625 C-54.43999304 372.86631917 -53.06298882 371.52002007 -51.703125 370.16015625 C-49.1192978 367.57632905 -46.39801458 365.28673013 -43.55859375 362.9921875 C-43.11128906 362.55261719 -42.66398437 362.11304688 -42.203125 361.66015625 C-42.203125 361.00015625 -42.203125 360.34015625 -42.203125 359.66015625 C-41.63464844 359.41007812 -41.06617188 359.16 -40.48046875 358.90234375 C-37.86579787 357.47615963 -35.95733717 355.80315768 -33.765625 353.78515625 C-32.89164063 352.9859375 -32.01765625 352.18671875 -31.1171875 351.36328125 C-29.06644776 349.46098648 -27.01965644 347.55498836 -24.9765625 345.64453125 C-18.9305316 340.00310705 -12.88200435 334.56145273 -6.203125 329.66015625 C-7.06164043 325.04068286 -9.16276225 322.02182752 -12.33007812 318.60693359 C-18.49771297 314.42774254 -26.27632516 315.29551972 -33.453125 315.47265625 C-34.3301709 315.48101501 -35.2072168 315.48937378 -36.11083984 315.49798584 C-54.12994827 315.71690578 -70.22077234 319.86698004 -87.24365234 325.40332031 Z " fill="#704638" transform="translate(485.203125,37.33984375)"/>
<path d="M0 0 C4.28521023 1.4793042 5.86942598 4.52906642 7.9375 8.3125 C8.28449951 8.93697021 8.63149902 9.56144043 8.98901367 10.20483398 C21.55427095 33.36919691 24.69768328 60.78030655 17.38183594 86.14306641 C8.59604363 113.58108301 -9.2977802 135.2967841 -34.8125 148.75 C-53.29686325 157.60195618 -72.16692492 159.2543532 -92.33227539 160.4362793 C-94.46563722 160.565772 -96.59896777 160.69578094 -98.73226929 160.82626343 C-104.48951762 161.17678296 -110.24719621 161.51967405 -116.00500798 161.86079764 C-122.03980747 162.21929463 -128.07424831 162.58374096 -134.10874939 162.94721985 C-144.23003745 163.55586515 -154.35162156 164.15938755 -164.47338867 164.76000977 C-176.17957804 165.45473023 -187.88520897 166.15833302 -199.5905934 166.86647671 C-209.6508622 167.47485916 -219.71141054 168.07844258 -229.77220911 168.67800075 C-235.77726872 169.03587024 -241.78221507 169.39541978 -247.78691292 169.75931358 C-253.42304407 170.10060716 -259.05950109 170.43588738 -264.69626999 170.76647568 C-266.76686563 170.88890777 -268.83733745 171.01345433 -270.90767097 171.14024162 C-273.7275789 171.31259155 -276.54782924 171.47736783 -279.36830139 171.6401825 C-280.60402668 171.71837889 -280.60402668 171.71837889 -281.86471611 171.79815501 C-285.47257324 171.99891785 -288.5302654 171.99505748 -292 171 C-291.36425049 170.63463135 -290.72850098 170.2692627 -290.07348633 169.89282227 C-267.72730219 157.04311962 -245.4730909 144.04223565 -223.3125 130.875 C-213.50997686 125.05076665 -203.65600709 119.32311794 -193.76879883 113.64404297 C-185.97430226 109.15931264 -178.22825426 104.59782216 -170.5 100 C-160.63638729 94.13177472 -150.72185459 88.36079919 -140.76953125 82.64453125 C-132.97485058 78.15953405 -125.22851258 73.59796176 -117.5 69 C-108.59954942 63.70494155 -99.66617945 58.47382475 -90.6875 53.3125 C-81.93556996 48.28139572 -73.21735177 43.19931375 -64.53344727 38.05175781 C-56.91006014 33.5334847 -49.27056103 29.04310254 -41.625 24.5625 C-41.01532379 24.20511749 -40.40564758 23.84773499 -39.77749634 23.47952271 C-33.1637641 19.60308197 -26.54642315 15.73293081 -19.921875 11.875 C-18.26357666 10.90904907 -18.26357666 10.90904907 -16.57177734 9.92358398 C-14.48931256 8.71122496 -12.40633032 7.49975421 -10.32275391 6.28930664 C-8.93709229 5.4828772 -8.93709229 5.4828772 -7.5234375 4.66015625 C-6.3156665 3.95838257 -6.3156665 3.95838257 -5.08349609 3.24243164 C-3.35727236 2.21304887 -1.6722922 1.11486146 0 0 Z " fill="#E6CED8" transform="translate(335,82)"/>
<path d="M0 0 C1.25 2 1.25 2 2 4 C2.66 4.33 3.32 4.66 4 5 C3.10385089 12.39323019 -0.28261368 16.65663001 -5.9375 21.125 C-7.26007813 22.13046875 -7.26007813 22.13046875 -8.609375 23.15625 C-11.30992988 25.23903089 -13.62287026 27.55862351 -16 30 C-17.1582402 31.00974787 -18.32555805 32.00914319 -19.5 33 C-21.60118651 34.77514032 -23.5500156 36.5500156 -25.5 38.5 C-27.99921867 40.99921867 -30.61533551 43.25261103 -33.3125 45.53125 C-34.76313196 46.79383708 -36.14013618 48.14013618 -37.5 49.5 C-39.4499844 51.4499844 -41.39881349 53.22485968 -43.5 55 C-45.52988591 56.71692705 -47.42910842 58.42910842 -49.3125 60.3125 C-53.38371131 64.38371131 -57.70174386 68.17135607 -62 72 C-62.77730469 72.70511719 -63.55460937 73.41023438 -64.35546875 74.13671875 C-65.41701172 75.08998047 -65.41701172 75.08998047 -66.5 76.0625 C-67.1290625 76.63097656 -67.758125 77.19945312 -68.40625 77.78515625 C-70 79 -70 79 -72 79 C-72.23976563 79.57621094 -72.47953125 80.15242188 -72.7265625 80.74609375 C-74.25848329 83.45749956 -76.02073052 85.02441882 -78.375 87.0625 C-82.3598674 90.55718834 -86.29403654 94.09211834 -90.1875 97.6875 C-102.51346852 109 -102.51346852 109 -105 109 C-105.22042969 109.56847656 -105.44085938 110.13695312 -105.66796875 110.72265625 C-107.41363006 113.70717397 -109.59240623 115.31369201 -112.3125 117.4375 C-116.13276156 120.43429454 -119.59553481 123.53926265 -123 127 C-124.69337421 128.4924654 -126.41972154 129.93335373 -128.15625 131.375 C-130.54480196 133.48016444 -132.75029099 135.74703054 -135 138 C-137.18906819 140.08349707 -139.40487809 142.13718194 -141.625 144.1875 C-142.19734375 144.72052734 -142.7696875 145.25355469 -143.359375 145.80273438 C-145.82346718 148.08058703 -148.20218996 150.13479331 -151 152 C-151.33 152.99 -151.66 153.98 -152 155 C-154 156.66666667 -156 158.33333333 -158 160 C-158.33 160.99 -158.66 161.98 -159 163 C-160.4231828 164.19150188 -161.85069043 165.3785862 -163.30859375 166.52734375 C-165.74929193 168.65238581 -167.69649025 171.11466109 -169.703125 173.64453125 C-170.13109375 174.09183594 -170.5590625 174.53914062 -171 175 C-171.66 175 -172.32 175 -173 175 C-173.13728516 175.89332031 -173.13728516 175.89332031 -173.27734375 176.8046875 C-174.17302679 179.52562732 -175.31588204 180.39124634 -177.5625 182.125 C-179.4682472 183.56363034 -179.4682472 183.56363034 -181 185 C-181 185.66 -181 186.32 -181 187 C-182.3729356 188.13824575 -183.80004381 189.21164428 -185.25 190.25 C-189.12222577 193.16321658 -191.38466088 195.90263538 -194 200 C-200.04118993 206 -200.04118993 206 -203 206 C-203.2475 206.58265625 -203.495 207.1653125 -203.75 207.765625 C-205.18525446 210.33114236 -206.77663013 211.83724798 -209 213.75 C-209.70125 214.36359375 -210.4025 214.9771875 -211.125 215.609375 C-213 217 -213 217 -215 217 C-215.185625 217.556875 -215.37125 218.11375 -215.5625 218.6875 C-217.38279719 221.61580417 -219.5855761 222.98725758 -222.44140625 224.8515625 C-224.15572515 225.93246934 -224.15572515 225.93246934 -225 228 C-225.66 228 -226.32 228 -227 228 C-227.24105469 228.58910156 -227.48210937 229.17820312 -227.73046875 229.78515625 C-229.2438085 232.42535206 -230.85948212 233.65236262 -233.3125 235.4375 C-236.83962758 238.08143933 -239.91943878 240.83837138 -243 244 C-244.69976407 245.48235239 -246.42099755 246.93441306 -248.15625 248.375 C-250.5447034 250.48007758 -252.75046068 252.74716706 -255 255 C-257.04240154 256.93877724 -259.11218747 258.84656131 -261.1875 260.75 C-261.72052734 261.24371094 -262.25355469 261.73742187 -262.80273438 262.24609375 C-266.76045583 265.88022791 -266.76045583 265.88022791 -269 267 C-269.99503094 269.03602614 -269.99503094 269.03602614 -270.875 271.5 C-272.20213179 274.966389 -273.58555504 278.3724118 -275.125 281.75 C-276.64054232 285.10925325 -277.91477263 288.47301105 -279 292 C-279.66 292 -280.32 292 -281 292 C-281 292.99 -281 293.98 -281 295 C-282 296 -283 297 -284 298 C-285.05008653 299.97416268 -286.04987876 301.97582866 -287 304 C-287.66666667 305.33333333 -288.33333333 306.66666667 -289 308 C-289.66 308 -290.32 308 -291 308 C-292.20628008 310.33214148 -293.1654738 312.49642139 -294 315 C-294.97753644 316.02196992 -295.9805881 317.01979625 -297 318 C-298.01800576 319.31963709 -299.02248365 320.65009646 -300 322 C-301.98 321.67 -303.96 321.34 -306 321 C-306 320.34 -306 319.68 -306 319 C-307.30904297 318.64228516 -307.30904297 318.64228516 -308.64453125 318.27734375 C-312.34709838 316.86786825 -314.67698581 315.11954762 -317.6875 312.5625 C-318.61949219 311.78003906 -319.55148437 310.99757813 -320.51171875 310.19140625 C-324.6567623 306.54090479 -324.6567623 306.54090479 -326 305 C-326 304.34 -326 303.68 -326 303 C-326.66 303 -327.32 303 -328 303 C-329.62356346 301.03062339 -331.13559566 299.06654852 -332.625 297 C-333.04523438 296.42765625 -333.46546875 295.8553125 -333.8984375 295.265625 C-334.93805801 293.84796067 -335.96977591 292.42450738 -337 291 C-334.45077726 286.18480148 -332.02155147 282.74735478 -328 279 C-326.68523378 277.66890128 -325.37291863 276.33537899 -324.0625 275 C-315.04545455 266 -315.04545455 266 -312 266 C-311.63841797 265.11634766 -311.63841797 265.11634766 -311.26953125 264.21484375 C-309.7561915 261.57464794 -308.14051788 260.34763738 -305.6875 258.5625 C-302.16037242 255.91856067 -299.08056122 253.16162862 -296 250 C-294.84193085 248.99005597 -293.67463613 247.99062661 -292.5 247 C-290.39881349 245.22485968 -288.4499844 243.4499844 -286.5 241.5 C-284.00078133 239.00078133 -281.38466449 236.74738897 -278.6875 234.46875 C-277.23686804 233.20616292 -275.85986382 231.85986382 -274.5 230.5 C-272.00078133 228.00078133 -269.38466449 225.74738897 -266.6875 223.46875 C-265.23686804 222.20616292 -263.85986382 220.85986382 -262.5 219.5 C-260.5500156 217.5500156 -258.60118651 215.77514032 -256.5 214 C-254.47011409 212.28307295 -252.57089158 210.57089158 -250.6875 208.6875 C-247.48834621 205.48834621 -244.13678105 202.49229564 -240.76171875 199.48046875 C-238.85544099 197.76832394 -236.9629762 196.04071828 -235.08203125 194.30078125 C-234.12683594 193.41777344 -233.17164063 192.53476562 -232.1875 191.625 C-231.31480469 190.81289063 -230.44210937 190.00078125 -229.54296875 189.1640625 C-227.13115629 187.1116138 -224.74476139 185.56318069 -222 184 C-219.30013893 181.9751042 -216.92033188 179.91828911 -214.5625 177.5 C-211.89360308 174.89619812 -209.09594436 173.06396291 -206 171 C-205.154375 170.154375 -204.30875 169.30875 -203.4375 168.4375 C-201.06905706 166.06905706 -198.85056985 164.71034191 -196 163 C-194.8553125 161.824375 -194.8553125 161.824375 -193.6875 160.625 C-190.92901826 157.93066899 -188.20317206 156.15759735 -184.91796875 154.19140625 C-182.44664227 152.65626454 -180.25772156 150.83058505 -178 149 C-176.3497306 147.9731657 -174.68756133 146.96432076 -173 146 C-172.52949219 146.63808594 -172.05898438 147.27617187 -171.57421875 147.93359375 C-170.95160156 148.75988281 -170.32898438 149.58617187 -169.6875 150.4375 C-169.07261719 151.26121094 -168.45773437 152.08492187 -167.82421875 152.93359375 C-166.08702303 155.24983637 -166.08702303 155.24983637 -163 156 C-162.01 155.34 -161.02 154.68 -160 154 C-160.34013015 148.55791766 -163.70296528 145.06331802 -167 141 C-165.33102247 139.15534063 -163.83635892 137.9042906 -161.67578125 136.640625 C-158.49220901 134.6886537 -155.88644026 132.30253342 -153.1875 129.75 C-152.12691777 128.76235926 -151.06571903 127.77538016 -150.00390625 126.7890625 C-149.23457764 126.07218262 -149.23457764 126.07218262 -148.44970703 125.34082031 C-144.35327492 121.55206902 -140.12616048 117.91329366 -135.8125 114.375 C-132.99487262 112.06315431 -132.99487262 112.06315431 -130.5625 109.5625 C-128.59027108 107.59027108 -126.62495812 105.79451107 -124.5 104 C-122.39881349 102.22485968 -120.4499844 100.4499844 -118.5 98.5 C-116.00078133 96.00078133 -113.38466449 93.74738897 -110.6875 91.46875 C-109.23686804 90.20616292 -107.85986382 88.85986382 -106.5 87.5 C-104.5500156 85.5500156 -102.60118651 83.77514032 -100.5 82 C-98.47011409 80.28307295 -96.57089158 78.57089158 -94.6875 76.6875 C-91.52905351 73.52905351 -88.21632198 70.57779976 -84.88671875 67.6015625 C-81.66791302 64.70071728 -78.48928524 61.75914297 -75.3125 58.8125 C-62.53495679 47 -62.53495679 47 -60 47 C-59.67 46.34 -59.34 45.68 -59 45 C-58.29423828 45.66708984 -58.29423828 45.66708984 -57.57421875 46.34765625 C-56.95160156 46.91355469 -56.32898438 47.47945313 -55.6875 48.0625 C-54.76517578 48.91521484 -54.76517578 48.91521484 -53.82421875 49.78515625 C-53.22222656 50.18605469 -52.62023437 50.58695312 -52 51 C-50.515 50.505 -50.515 50.505 -49 50 C-48.66501699 47.66834966 -48.66501699 47.66834966 -49 45 C-50.89584109 42.68622853 -50.89584109 42.68622853 -53 41 C-52.1875 39.0625 -52.1875 39.0625 -51 37 C-49.515 36.505 -49.515 36.505 -48 36 C-47.3197633 34.67353844 -46.65508135 33.33906335 -46 32 C-44.125 30.078125 -44.125 30.078125 -42 28.25 C-41.29875 27.63640625 -40.5975 27.0228125 -39.875 26.390625 C-38 25 -38 25 -36 25 C-35.814375 24.443125 -35.62875 23.88625 -35.4375 23.3125 C-33.61720281 20.38419583 -31.4144239 19.01274242 -28.55859375 17.1484375 C-26.84427485 16.06753066 -26.84427485 16.06753066 -26 14 C-25.34 14 -24.68 14 -24 14 C-23.67 13.01 -23.34 12.02 -23 11 C-21.00390625 9.28125 -21.00390625 9.28125 -18.5625 7.5 C-15.6756702 5.3870074 -14.01015789 4.01523684 -12 1 C-7.69700605 -0.95590634 -4.54099613 -1.4448624 0 0 Z " fill="#BD8C5A" transform="translate(539,320)"/>
<path d="M0 0 C0.474375 0.639375 0.94875 1.27875 1.4375 1.9375 C4.34878172 5.41683669 7.51662528 8.52935242 10.74609375 11.7109375 C12.74597145 13.74200913 14.60846727 15.81594618 16.4375 18 C18.65389933 20.98929966 18.65389933 20.98929966 21 22 C20.32815433 26.01614414 19.10943253 29.58744791 17.625 33.375 C16.95791016 35.07849609 16.95791016 35.07849609 16.27734375 36.81640625 C14.90478175 40.23731767 13.48966177 43.6286602 12 47 C11.34 47 10.68 47 10 47 C10 47.99 10 48.98 10 50 C9 51 8 52 7 53 C5.94991347 54.97416268 4.95012124 56.97582866 4 59 C3.33333333 60.33333333 2.66666667 61.66666667 2 63 C1.34 63 0.68 63 0 63 C-1.20628008 65.33214148 -2.1654738 67.49642139 -3 70 C-3.97753644 71.02196992 -4.9805881 72.01979625 -6 73 C-7.01800576 74.31963709 -8.02248365 75.65009646 -9 77 C-11.97 76.505 -11.97 76.505 -15 76 C-15 75.34 -15 74.68 -15 74 C-15.87269531 73.76152344 -16.74539062 73.52304687 -17.64453125 73.27734375 C-21.34709838 71.86786825 -23.67698581 70.11954762 -26.6875 67.5625 C-27.61949219 66.78003906 -28.55148438 65.99757813 -29.51171875 65.19140625 C-33.6567623 61.54090479 -33.6567623 61.54090479 -35 60 C-35 59.34 -35 58.68 -35 58 C-35.66 58 -36.32 58 -37 58 C-38.62356346 56.03062339 -40.13559566 54.06654852 -41.625 52 C-42.25535156 51.14148438 -42.25535156 51.14148438 -42.8984375 50.265625 C-43.93805801 48.84796067 -44.96977591 47.42450738 -46 46 C-43.45077726 41.18480148 -41.02155147 37.74735478 -37 34 C-35.68523378 32.66890128 -34.37291863 31.33537899 -33.0625 30 C-24.04545455 21 -24.04545455 21 -21 21 C-20.75894531 20.41089844 -20.51789063 19.82179688 -20.26953125 19.21484375 C-18.7561915 16.57464794 -17.14051788 15.34763738 -14.6875 13.5625 C-11.16466123 10.91896179 -8.03620909 8.20488737 -5 5 C-3.33333333 3.33333333 -1.66666667 1.66666667 0 0 Z " fill="#39322F" transform="translate(248,565)"/>
<path d="M0 0 C5.24815662 4.28420948 9.63231826 8.83557631 14 14 C15.30995729 15.50222108 16.62237931 17.00229716 17.9375 18.5 C18.95833333 19.66666667 19.97916667 20.83333333 21 22 C16.25855513 28.04942966 16.25855513 28.04942966 14 30 C13.34 30 12.68 30 12 30 C11.75894531 30.58910156 11.51789063 31.17820312 11.26953125 31.78515625 C9.7561915 34.42535206 8.14051788 35.65236262 5.6875 37.4375 C2.16037242 40.08143933 -0.91943878 42.83837138 -4 46 C-5.69976407 47.48235239 -7.42099755 48.93441306 -9.15625 50.375 C-11.54533296 52.48063244 -13.75485154 54.74164479 -16 57 C-17.97808006 58.94060629 -19.98260518 60.85037188 -22 62.75 C-22.50789063 63.24371094 -23.01578125 63.73742187 -23.5390625 64.24609375 C-26.61827888 67.12792446 -28.75301905 68.76925182 -33 69 C-35.00463867 67.63232422 -35.00463867 67.63232422 -36.91796875 65.5546875 C-37.61470703 64.80703125 -38.31144531 64.059375 -39.02929688 63.2890625 C-39.74150391 62.49242187 -40.45371094 61.69578125 -41.1875 60.875 C-41.91130859 60.1015625 -42.63511719 59.328125 -43.38085938 58.53125 C-46.79719416 54.80665059 -49.31562817 51.82589664 -51 47 C-47.97741977 42.66325445 -44.33464709 39.83850587 -40.16796875 36.69140625 C-37.55726701 34.6545885 -35.30916965 32.36993727 -33 30 C-31.84193085 28.99005597 -30.67463613 27.99062661 -29.5 27 C-27.39881349 25.22485968 -25.4499844 23.4499844 -23.5 21.5 C-21.5500156 19.5500156 -19.60118651 17.77514032 -17.5 16 C-15.44635005 14.26365219 -13.53056499 12.53056499 -11.625 10.625 C-7.90667087 6.90667087 -3.95044897 3.46847698 0 0 Z " fill="#D5BDAA" transform="translate(300,518)"/>
<path d="M0 0 C1.98 1.65 3.96 3.3 6 5 C4.60352107 8.19163856 2.98396794 10.21134086 0.4375 12.57421875 C-0.27204834 13.23736084 -0.98159668 13.90050293 -1.71264648 14.58374023 C-2.46747314 15.27798096 -3.2222998 15.97222168 -4 16.6875 C-4.77093994 17.40429932 -5.54187988 18.12109863 -6.33618164 18.85961914 C-11.08994096 23.26979337 -15.86732518 27.65387983 -20.71484375 31.9609375 C-22.40813302 33.47187254 -24.08544001 35.00076029 -25.75390625 36.5390625 C-26.66011719 37.37179687 -27.56632812 38.20453125 -28.5 39.0625 C-29.3146875 39.81660156 -30.129375 40.57070313 -30.96875 41.34765625 C-33 43 -33 43 -35 43 C-35 43.66 -35 44.32 -35 45 C-36.3984375 46.41015625 -36.3984375 46.41015625 -38.375 48.0625 C-41.58342938 50.7907947 -44.74980367 53.55144446 -47.875 56.375 C-51.20432704 59.37951464 -54.53738066 62.37970059 -57.875 65.375 C-64.67914981 71.49873483 -71.41393041 77.69834882 -78.1484375 83.8984375 C-83.70169103 89.0069443 -89.27318374 94.08559256 -95 99 C-95.928125 99.825 -96.85625 100.65 -97.8125 101.5 C-98.534375 101.995 -99.25625 102.49 -100 103 C-104.39158329 101.5361389 -104.87947433 99.02168662 -107 95 C-105.9275 94.401875 -104.855 93.80375 -103.75 93.1875 C-98.58920791 89.97573045 -94.30758371 85.85870476 -89.8984375 81.71875 C-85.33967709 77.44260816 -80.6447125 73.3386376 -75.8125 69.375 C-72.99487262 67.06315431 -72.99487262 67.06315431 -70.5625 64.5625 C-68.59027108 62.59027108 -66.62495812 60.79451107 -64.5 59 C-62.39881349 57.22485968 -60.4499844 55.4499844 -58.5 53.5 C-56.00078133 51.00078133 -53.38466449 48.74738897 -50.6875 46.46875 C-49.23686804 45.20616292 -47.85986382 43.85986382 -46.5 42.5 C-44.5500156 40.5500156 -42.60118651 38.77514032 -40.5 37 C-38.47011409 35.28307295 -36.57089158 33.57089158 -34.6875 31.6875 C-31.52905351 28.52905351 -28.21632198 25.57779976 -24.88671875 22.6015625 C-21.66791302 19.70071728 -18.48928524 16.75914297 -15.3125 13.8125 C-2.53495679 2 -2.53495679 2 0 2 C0 1.34 0 0.68 0 0 Z " fill="#D4A772" transform="translate(479,365)"/>
<path d="M0 0 C3.00765886 2.84936103 5.27845212 5.23511958 7 9 C6.42894531 9.51046875 5.85789062 10.0209375 5.26953125 10.546875 C0.31037379 14.99355991 -4.61226591 19.47509505 -9.5 24 C-14.95621408 29.04954468 -20.46103796 34.04122384 -26 39 C-32.56898028 44.88928302 -32.56898028 44.88928302 -39.0859375 50.8359375 C-39.61203613 51.3201416 -40.13813477 51.8043457 -40.68017578 52.30322266 C-42.16829263 53.67469707 -43.65451444 55.04822686 -45.140625 56.421875 C-48.03502046 59.03157582 -50.99063092 61.52483845 -54 64 C-57.3 60.37 -60.6 56.74 -64 53 C-62.09727291 49.19454582 -60.80158677 47.65382107 -57.6875 44.9375 C-56.92824219 44.26589844 -56.16898437 43.59429687 -55.38671875 42.90234375 C-53.02275501 41.01813697 -50.61140191 39.51504475 -48 38 C-45.30013893 35.9751042 -42.92033188 33.91828911 -40.5625 31.5 C-37.89360308 28.89619812 -35.09594436 27.06396291 -32 25 C-30.7315625 23.7315625 -30.7315625 23.7315625 -29.4375 22.4375 C-27.06905706 20.06905706 -24.85056985 18.71034191 -22 17 C-21.236875 16.21625 -20.47375 15.4325 -19.6875 14.625 C-16.93009125 11.93171704 -14.20404187 10.15947248 -10.921875 8.19140625 C-8.44365994 6.6551144 -6.23781999 4.86484999 -4 3 C-2.67098936 1.99426222 -1.33926199 0.99204592 0 0 Z " fill="#D4A872" transform="translate(365,466)"/>
<path d="M0 0 C8.30894309 6.82926829 8.30894309 6.82926829 10 10 C9.84547044 12.54973766 9.18013959 13.7512358 7.6875 15.8125 C6 17 6 17 4 16.9375 C1.4900915 15.76098039 0.59965884 14.2256123 -1 12 C-1.99 11.67 -2.98 11.34 -4 11 C-3.566875 11.55429687 -3.13375 12.10859375 -2.6875 12.6796875 C-2.130625 13.40414062 -1.57375 14.12859375 -1 14.875 C-0.443125 15.59429688 0.11375 16.31359375 0.6875 17.0546875 C2 19 2 19 2 21 C0.30096977 22.51740976 -1.46072723 23.965128 -3.25 25.375 C-6.69854068 28.10281393 -9.95506069 30.82456329 -13 34 C-16.43595166 32.47291037 -19.11912454 30.40072955 -22 28 C-20.47793991 30.62901288 -19.15634036 32.84365964 -17 35 C-17 38 -17 38 -18.5390625 39.6484375 C-19.22742188 40.21820312 -19.91578125 40.78796875 -20.625 41.375 C-21.35460937 41.98085938 -22.08421875 42.58671875 -22.8359375 43.2109375 C-23.55007813 43.80132813 -24.26421875 44.39171875 -25 45 C-25.56976563 45.52851562 -26.13953125 46.05703125 -26.7265625 46.6015625 C-30.38703634 49.96168977 -30.38703634 49.96168977 -33 50.125 C-36.00530252 48.43451733 -38.41946769 46.28729 -41 44 C-39.26440562 47.057952 -37.61527381 49.63379989 -35 52 C-36.29299694 54.88437779 -37.65941363 56.87219421 -40 59 C-43.44428265 57.55218207 -45.36130962 55.72305391 -47.75 52.875 C-48.36359375 52.15054688 -48.9771875 51.42609375 -49.609375 50.6796875 C-50.06828125 50.12539063 -50.5271875 49.57109375 -51 49 C-49.60952696 44.38135271 -47.47071653 42.40780377 -43.6875 39.5 C-39.85357209 36.52909815 -36.39838487 33.46017369 -33 30 C-31.84723609 28.98400469 -30.68226811 27.9815056 -29.5 27 C-27.39881349 25.22485968 -25.4499844 23.4499844 -23.5 21.5 C-21.5500156 19.5500156 -19.60118651 17.77514032 -17.5 16 C-15.44635005 14.26365219 -13.53056499 12.53056499 -11.625 10.625 C-7.90667087 6.90667087 -3.95044897 3.46847698 0 0 Z " fill="#EFE3D6" transform="translate(300,518)"/>
<path d="M0 0 C1.25830078 1.41088867 1.25830078 1.41088867 2.6953125 3.41796875 C3.23800781 4.16691406 3.78070313 4.91585938 4.33984375 5.6875 C5.22349609 6.925 5.22349609 6.925 6.125 8.1875 C7.39682998 9.94257228 8.6703291 11.69643596 9.9453125 13.44921875 C10.61079102 14.36493652 11.27626953 15.2806543 11.96191406 16.22412109 C15.24590809 20.6969304 18.62251856 25.09760781 22 29.5 C27.75123496 37.00736368 33.39482533 44.58354071 38.96362305 52.22705078 C43.23026576 58.04873272 47.68505709 63.69338922 52.35839844 69.19482422 C55.00995352 72.39595768 56.64639103 74.80384018 57 79 C55.35 79.99 53.7 80.98 52 82 C47.89143597 78.09497951 44.4701119 73.89753517 41.0625 69.375 C40.49893799 68.63282227 39.93537598 67.89064453 39.35473633 67.12597656 C34.65891685 60.92192079 30.04943174 54.65519354 25.45019531 48.37939453 C20.31471301 41.38715071 15.0581872 34.49117204 9.78588867 27.60180664 C4.0863139 20.14280096 -1.48990263 12.59973175 -7 5 C-2.25 0 -2.25 0 0 0 Z " fill="#1B1B1B" transform="translate(323,395)"/>
<path d="M0 0 C0 1.32 0 2.64 0 4 C-2.125 6.078125 -2.125 6.078125 -5 8.25 C-9.35319349 11.6500615 -13.27557067 15.1589959 -17.12109375 19.11328125 C-19.54902569 21.55130855 -22.12713021 23.77668484 -24.734375 26.01953125 C-27.53316204 28.46605716 -30.26691126 30.9807533 -33 33.5 C-37.60407503 37.74021394 -42.25843472 41.91388639 -47 46 C-48.98 44.35 -50.96 42.7 -53 41 C-52.1875 39.0625 -52.1875 39.0625 -51 37 C-49.515 36.505 -49.515 36.505 -48 36 C-47.3197633 34.67353844 -46.65508135 33.33906335 -46 32 C-44.125 30.078125 -44.125 30.078125 -42 28.25 C-40.948125 27.32960938 -40.948125 27.32960938 -39.875 26.390625 C-38 25 -38 25 -36 25 C-35.814375 24.443125 -35.62875 23.88625 -35.4375 23.3125 C-33.61720281 20.38419583 -31.4144239 19.01274242 -28.55859375 17.1484375 C-26.84427485 16.06753066 -26.84427485 16.06753066 -26 14 C-25.34 14 -24.68 14 -24 14 C-23.67 13.01 -23.34 12.02 -23 11 C-21.00390625 9.28125 -21.00390625 9.28125 -18.5625 7.5 C-15.6756702 5.3870074 -14.01015789 4.01523684 -12 1 C-7.61255081 -0.99429508 -4.66229754 -1.11007084 0 0 Z " fill="#D4A772" transform="translate(539,320)"/>
<path d="M0 0 C3.50436989 1.58315063 6.38053351 3.67720321 9.4375 6 C10.48550781 6.79535156 11.53351562 7.59070313 12.61328125 8.41015625 C13.74233772 9.27324102 14.87123927 10.13652848 16 11 C16.59216309 11.45101074 17.18432617 11.90202148 17.79443359 12.36669922 C19.57302278 13.72138093 21.34950975 15.07875988 23.125 16.4375 C23.6811499 16.86224609 24.2372998 17.28699219 24.81030273 17.72460938 C26.99022702 19.40058905 29.0531775 21.0531775 31 23 C30.83984375 25.03125 30.83984375 25.03125 30 27 C21.53637004 30.69322035 12.00497029 32.08632239 3 34 C3.03480469 33.13761719 3.06960938 32.27523437 3.10546875 31.38671875 C3.34340284 20.65702453 1.90685406 10.54444893 0 0 Z " fill="#FED686" transform="translate(507,71)"/>
<path d="M0 0 C3.92745164 2.64012027 6.37795004 5.67107509 8.375 9.9375 C7.77640434 14.82603126 4.6036905 17.80631021 1 21 C-2.73974658 23.35685818 -5.4751182 23.2004161 -9.74609375 22.609375 C-14.1505249 21.41857559 -16.74009873 18.6981278 -19.4375 15.0625 C-20.30878106 11.86780277 -20.056545 10.16963499 -19 7 C-13.60143782 0.26215258 -8.58043734 -2.54287795 0 0 Z " fill="#1B1B1B" transform="translate(477,78)"/>
<path d="M0 0 C3.75944963 2.86927466 6.72445787 6.28754117 9.50854492 10.09179688 C10.78961218 11.82355944 12.16517133 13.42501602 13.58447266 15.04443359 C15.76806641 17.79443359 15.76806641 17.79443359 16.08056641 20.66943359 C15.97744141 21.37068359 15.87431641 22.07193359 15.76806641 22.79443359 C13.78806641 23.78443359 13.78806641 23.78443359 11.76806641 24.79443359 C4.45071407 18.77307009 4.45071407 18.77307009 1.98876953 15.24365234 C-0.50397481 11.74187829 -2.85629293 8.50229136 -7.13796997 7.22650146 C-12.49725521 6.37185064 -17.88650148 6.5433771 -23.29443359 6.66943359 C-24.9396168 6.67137845 -26.58481184 6.66881309 -28.22998047 6.66162109 C-32.23266083 6.65384715 -36.23024154 6.70723967 -40.23193359 6.79443359 C-39.24193359 6.13443359 -38.25193359 5.47443359 -37.23193359 4.79443359 C-36.53583984 4.29685547 -35.83974609 3.79927734 -35.12255859 3.28662109 C-25.66846297 -2.50331321 -10.20795449 -5.51376934 0 0 Z " fill="#1C1B1B" transform="translate(475.23193359375,347.20556640625)"/>
<path d="M0 0 C2.86697492 1.28519565 4.97607712 2.57129254 7 5 C7 5.66 7 6.32 7 7 C7.66 7 8.32 7 9 7 C14 12.35714286 14 12.35714286 14 16 C9.97504703 14.41070782 7.62702345 11.7297495 4.75 8.5625 C3.85796875 7.59441406 2.9659375 6.62632812 2.046875 5.62890625 C0 3 0 3 0 0 Z " fill="#B5ABA1" transform="translate(259,562)"/>
<path d="M0 0 C3.36295835 1.44126786 5.62927102 3.20592655 8 6 C8 6.99 8 7.98 8 9 C7.01 9 6.02 9 5 9 C0 3.76744186 0 3.76744186 0 0 Z " fill="#A39082" transform="translate(303,536)"/>
<path d="M0 0 C3.51463012 1.89980007 5.89550678 3.56635317 8 7 C8 7.66 8 8.32 8 9 C4.86493389 8.66410006 3.974751 7.97334828 1.75 5.625 C0 3 0 3 0 0 Z " fill="#A18F81" transform="translate(284,552)"/>
<path d="M0 0 C1.75 0.125 1.75 0.125 4 1 C6.25 4.0625 6.25 4.0625 8 7 C6.68 7 5.36 7 4 7 C0 2.77777778 0 2.77777778 0 0 Z " fill="#B6ACA3" transform="translate(296,529)"/>
<path d="M0 0 C2.86207152 1.28299758 5.0245088 2.530636 7 5 C7 5.99 7 6.98 7 8 C4.13792848 6.71700242 1.9754912 5.469364 0 3 C0 2.01 0 1.02 0 0 Z " fill="#A08E7F" transform="translate(266,570)"/>
<path d="M0 0 C3.36720387 1.39332574 4.9859524 2.9789286 7 6 C6.34 6.66 5.68 7.32 5 8 C2.5 5.6875 2.5 5.6875 0 3 C0 2.01 0 1.02 0 0 Z " fill="#B5ABA2" transform="translate(278,546)"/>
</svg>
